<?xml version="1.0" encoding="utf-8"?>
<!-- Generator: Adobe Illustrator 16.0.0, SVG Export Plug-In . SVG Version: 6.00 Build 0)  -->
<!DOCTYPE svg PUBLIC "-//W3C//DTD SVG 1.1//EN" "http://www.w3.org/Graphics/SVG/1.1/DTD/svg11.dtd">
<svg version="1.1" id="Layer_1" xmlns="http://www.w3.org/2000/svg" xmlns:xlink="http://www.w3.org/1999/xlink" x="0px" y="0px"
	 width="160px" height="90px" viewBox="0 0 160 90" enable-background="new 0 0 160 90" xml:space="preserve">
<g>
	<path fill="#FAFBFB" d="M161.496,89.213c0,1.158-0.578,1.738-1.738,1.738h-19.866c-10.099,0-17.61-1.925-22.536-5.774
		c-4.924-3.849-7.388-9.417-7.388-16.7c0-3.146,0.478-5.94,1.428-8.381c0.952-2.442,2.235-4.554,3.85-6.333
		c1.613-1.78,3.519-3.188,5.711-4.222c2.194-1.035,4.532-1.719,7.016-2.048c-3.062-0.745-5.877-1.738-8.443-2.98
		c-2.564-1.242-4.759-2.793-6.581-4.656c-1.819-1.862-3.247-4.057-4.283-6.581c-1.034-2.526-1.553-5.36-1.553-8.505
		c0-8.443,3.023-14.838,9.064-19.184c6.044-4.346,15.231-6.519,27.564-6.519h16.018c1.16,0,1.738,0.58,1.738,1.739V89.213z
		 M112.327,24.274c0,7.118,2.69,12.292,8.07,15.521c5.382,3.229,12.708,4.842,21.978,4.842h13.906V3.787h-12.789
		c-4.718,0-8.98,0.415-12.789,1.241c-3.807,0.827-7.077,2.09-9.809,3.787c-2.732,1.696-4.843,3.828-6.333,6.395
		C113.071,17.774,112.327,20.797,112.327,24.274z M115.183,68.601c0,2.98,0.602,5.588,1.801,7.823
		c1.2,2.234,2.877,4.075,5.028,5.525c2.153,1.447,4.739,2.523,7.761,3.228c3.022,0.702,6.395,1.056,10.119,1.056h16.39V49.355
		h-13.906c-4.055,0-7.761,0.392-11.113,1.18c-3.353,0.785-6.208,1.986-8.567,3.601s-4.2,3.62-5.525,6.021
		C115.846,62.558,115.183,65.373,115.183,68.601z"/>
</g>
<g>
	<path fill="#FAFBFB" d="M83.027,89.768c0,0.667-0.021,1.127-0.063,1.378c-0.043,0.25-0.397,0.376-1.064,0.376H79.52
		c-1.171,0-1.754-0.586-1.754-1.754V0.561c0-1.168,0.583-1.754,1.754-1.754h1.754c1.169,0,1.754,0.585,1.754,1.754V89.768z"/>
</g>
<g>
	<path fill="#CC435A" d="M53.078,64.711c0,17.467-11.963,26.199-35.885,26.199H2.17c-1.738,0-2.753-0.145-3.042-0.434
		c-0.291-0.291-0.435-1.305-0.435-3.043V2.505c0-1.739,0.144-2.752,0.435-3.043c0.289-0.289,1.304-0.435,3.042-0.435h18.625
		c19.618,0,29.427,7.534,29.427,22.599c0,11.507-5.463,18.501-16.39,20.984c6.29,1.821,11.07,4.574,14.341,8.257
		C51.442,54.551,53.078,59.166,53.078,64.711z M43.89,65.208c0-6.125-2.235-10.679-6.705-13.658s-11.548-4.47-21.232-4.47H7.881
		v36.008h9.562C35.073,83.088,43.89,77.128,43.89,65.208z M41.033,21.998c0-10.182-6.747-15.272-20.238-15.272H8.13v32.407h10.306
		c7.531,0,13.181-1.489,16.948-4.47C39.149,31.684,41.033,27.462,41.033,21.998z"/>
</g>
<g>
</g>
<g>
</g>
<g>
</g>
<g>
</g>
<g>
</g>
<g>
</g>
</svg>
